<svg version="1.1" xmlns="http://www.w3.org/2000/svg" viewBox="0 0 754.1910400390625 2119.9999999999995" width="754.1910400390625" height="2119.9999999999995">
  <!-- svg-source:excalidraw -->
  
  <defs>
    <style class="style-fonts">
      @font-face {
        font-family: "Virgil";
        src: url("https://excalidraw.com/Virgil.woff2");
      }
      @font-face {
        font-family: "Cascadia";
        src: url("https://excalidraw.com/Cascadia.woff2");
      }
      @font-face {
        font-family: "Assistant";
        src: url("https://excalidraw.com/Assistant-Regular.woff2");
      }
    </style>
    
  </defs>
  <rect x="0" y="0" width="754.1910400390625" height="2119.9999999999995" fill="#ffffff"></rect><g transform="translate(168.95723978678387 10) rotate(0 227.30494689941406 122.5)"><text x="227.30494689941406" y="24.528" font-family="Virgil, Segoe UI Emoji" font-size="28px" fill="#1e1e1e" text-anchor="middle" style="white-space: pre;" direction="ltr" dominant-baseline="alphabetic">web.Forms</text><text x="227.30494689941406" y="59.528" font-family="Virgil, Segoe UI Emoji" font-size="28px" fill="#1e1e1e" text-anchor="middle" style="white-space: pre;" direction="ltr" dominant-baseline="alphabetic">O que deseja cadastrar?</text><text x="227.30494689941406" y="94.52799999999999" font-family="Virgil, Segoe UI Emoji" font-size="28px" fill="#1e1e1e" text-anchor="middle" style="white-space: pre;" direction="ltr" dominant-baseline="alphabetic"></text><text x="227.30494689941406" y="129.528" font-family="Virgil, Segoe UI Emoji" font-size="28px" fill="#1e1e1e" text-anchor="middle" style="white-space: pre;" direction="ltr" dominant-baseline="alphabetic">Contato: Grupos, amigos, pets ...</text><text x="227.30494689941406" y="164.528" font-family="Virgil, Segoe UI Emoji" font-size="28px" fill="#1e1e1e" text-anchor="middle" style="white-space: pre;" direction="ltr" dominant-baseline="alphabetic"></text><text x="227.30494689941406" y="199.528" font-family="Virgil, Segoe UI Emoji" font-size="28px" fill="#1e1e1e" text-anchor="middle" style="white-space: pre;" direction="ltr" dominant-baseline="alphabetic"></text><text x="227.30494689941406" y="234.528" font-family="Virgil, Segoe UI Emoji" font-size="28px" fill="#1e1e1e" text-anchor="middle" style="white-space: pre;" direction="ltr" dominant-baseline="alphabetic"></text></g><g stroke-linecap="round" transform="translate(89.59552001953097 178.33333333333326) rotate(0 299.1666666666667 21.666666666666686)"><path d="M-0.46 0.34 C152.17 1.44, 301.41 0.26, 597.83 -0.62 M0.72 0.02 C203.69 2.49, 406.89 1.21, 598.93 0.33 M599.31 -2.37 C600.74 19.74, 594.61 34.8, 600.36 41.32 M599.12 -0.8 C600.05 10.49, 598.07 19.96, 599.09 45.09 M598.03 43.44 C369.06 42.22, 138.85 44.21, -1.01 44.31 M597.67 42.65 C439.48 44.18, 279.97 44.57, -0.09 43.51 M2.25 42.42 C4.07 34.85, -1.68 23.28, -3.19 -2.25 M1.28 43.16 C-1.33 32.67, 1.24 19.37, 1.31 -0.8" stroke="#1e1e1e" stroke-width="1" fill="none"></path></g><g transform="translate(112.9700419108072 181.66666666666686) rotate(0 33.292144775390625 17.5)"><text x="33.292144775390625" y="24.528" font-family="Virgil, Segoe UI Emoji" font-size="28px" fill="#1e1e1e" text-anchor="middle" style="white-space: pre;" direction="ltr" dominant-baseline="alphabetic">Nome</text></g><g stroke-linecap="round" transform="translate(87.92885335286468 241.66666666666686) rotate(0 300.00000000000006 23.333333333333314)"><path d="M-1.46 0.93 C173.14 5.53, 345.73 3.6, 600.26 0.47 M0.33 -0.08 C197.54 -2.98, 397.19 -3.13, 599.56 0.6 M597.87 -1.51 C596.07 17.94, 601.89 27.38, 603.79 49.81 M599.89 0.62 C600.29 16.96, 601.62 37.72, 601.24 46 M600.51 47.58 C419.78 43.04, 241.59 42.54, -0.07 47 M599.95 46.36 C478.7 44.89, 358.74 44.26, 0.09 45.98 M2.11 47.74 C-1.36 32.71, 0.16 12.71, 3.47 1.11 M-1.84 46.33 C0.49 31.05, 0.2 18.19, 1.12 -1.84" stroke="#1e1e1e" stroke-width="1" fill="none"></path></g><g transform="translate(102.92856343587226 251.66666666666674) rotate(0 70.00028991699219 17.5)"><text x="70.00028991699219" y="24.528" font-family="Virgil, Segoe UI Emoji" font-size="28px" fill="#1e1e1e" text-anchor="middle" style="white-space: pre;" direction="ltr" dominant-baseline="alphabetic">Intimidade</text></g><g stroke-linecap="round" transform="translate(84.5955200195312 300.0000000000001) rotate(0 302.49999999999994 23.333333333333314)"><path d="M1.01 -1.53 C215.44 -6.14, 431.23 -3.13, 605.42 1.42 M0.57 -0.52 C226.11 -2.49, 450.79 -2.08, 604.29 -0.39 M603.97 1.84 C605.11 11.67, 605.59 23.99, 602.16 49.64 M604.64 -1.75 C604.58 11.91, 605.67 28.73, 606.98 48.54 M605.64 47.41 C454.56 47.13, 304.08 49.65, -0.96 47.26 M604.31 46.52 C399.84 43.5, 193.3 44.12, -0.41 46.23 M-3.25 49.32 C2.31 37.8, -3.54 19.59, 1.33 -0.48 M-1.05 46.4 C1.45 36.22, 0.77 21.07, 1.94 -0.42" stroke="#1e1e1e" stroke-width="1" fill="none"></path></g><g transform="translate(96.99516296386713 310.0000000000001) rotate(0 82.60035705566406 17.5)"><text x="82.60035705566406" y="24.528" font-family="Virgil, Segoe UI Emoji" font-size="28px" fill="#1e1e1e" text-anchor="middle" style="white-space: pre;" direction="ltr" dominant-baseline="alphabetic">Complemento</text></g><g stroke-linecap="round" transform="translate(246.26218668619805 376.6666666666667) rotate(0 128.33333333333326 35)"><path d="M17.5 0 C88.26 -0.74, 161.37 2, 239.17 0 M17.5 0 C75.31 -3.39, 134.65 -2.79, 239.17 0 M239.17 0 C249.32 3.66, 256.05 4.92, 256.67 17.5 M239.17 0 C253.14 -2.14, 252.77 4.77, 256.67 17.5 M256.67 17.5 C256.95 31.01, 257.02 42.83, 256.67 52.5 M256.67 17.5 C255.81 24.25, 257.59 33.98, 256.67 52.5 M256.67 52.5 C256.22 61.34, 250.85 68.17, 239.17 70 M256.67 52.5 C253.42 65.1, 250.65 70.82, 239.17 70 M239.17 70 C155.02 69.49, 63.22 73.1, 17.5 70 M239.17 70 C175.53 65.55, 110.64 66.53, 17.5 70 M17.5 70 C8.93 69.26, -0.47 65.75, 0 52.5 M17.5 70 C5.23 72.74, 3.5 66.24, 0 52.5 M0 52.5 C-1.03 37.41, 2.07 27.47, 0 17.5 M0 52.5 C-0.67 39.82, 1.39 27.42, 0 17.5 M0 17.5 C-2.95 2.03, 7.29 -3.11, 17.5 0 M0 17.5 C0.35 5.13, 3.24 -0.39, 17.5 0" stroke="#1e1e1e" stroke-width="1" fill="none"></path></g><g transform="translate(302.0472259521485 394.1666666666667) rotate(0 72.54829406738281 17.5)"><text x="72.54829406738281" y="24.528" font-family="Virgil, Segoe UI Emoji" font-size="28px" fill="#1e1e1e" text-anchor="middle" style="white-space: pre;" direction="ltr" dominant-baseline="alphabetic">Cadastrar</text></g><g transform="translate(10 600.8333333333334) rotate(0 367.09552001953125 70)"><text x="367.09552001953125" y="24.528" font-family="Virgil, Segoe UI Emoji" font-size="28px" fill="#1e1e1e" text-anchor="middle" style="white-space: pre;" direction="ltr" dominant-baseline="alphabetic"></text><text x="367.09552001953125" y="59.528" font-family="Virgil, Segoe UI Emoji" font-size="28px" fill="#1e1e1e" text-anchor="middle" style="white-space: pre;" direction="ltr" dominant-baseline="alphabetic">Localidade: Aquela viagem dos sonhos, inesquecível ...</text><text x="367.09552001953125" y="94.52799999999999" font-family="Virgil, Segoe UI Emoji" font-size="28px" fill="#1e1e1e" text-anchor="middle" style="white-space: pre;" direction="ltr" dominant-baseline="alphabetic"></text><text x="367.09552001953125" y="129.528" font-family="Virgil, Segoe UI Emoji" font-size="28px" fill="#1e1e1e" text-anchor="middle" style="white-space: pre;" direction="ltr" dominant-baseline="alphabetic"></text></g><g stroke-linecap="round" transform="translate(72.09552001953097 687.5) rotate(0 299.1666666666667 21.666666666666682)"><path d="M-1.1 -1.02 C177.45 -3.8, 356.81 -2.56, 599.08 1.46 M-0.4 -0.25 C218.9 -2.13, 439.27 -2.43, 598.59 -0.68 M599.01 -3.42 C600.07 8.92, 600.54 19.11, 600.48 43.26 M598.48 -0.68 C598.34 16.63, 596.89 31.04, 596.92 43.96 M599.23 42.64 C405.55 38.28, 216.73 38.66, -0.95 42.69 M597.7 43.18 C375.46 46.13, 152.71 46.26, 0.54 43.4 M-3.84 44.02 C2.8 26.64, 2.77 11.89, 2.49 -3.42 M0.28 43.58 C-2.24 34.02, 0.34 23.72, -1.03 0.65" stroke="#1e1e1e" stroke-width="1" fill="none"></path></g><g transform="translate(82.08533477783186 690.8333333333335) rotate(0 45.01018524169922 35)"><text x="45.01018524169922" y="24.528" font-family="Virgil, Segoe UI Emoji" font-size="28px" fill="#1e1e1e" text-anchor="middle" style="white-space: pre;" direction="ltr" dominant-baseline="alphabetic">Cidade</text><text x="45.01018524169922" y="59.528" font-family="Virgil, Segoe UI Emoji" font-size="28px" fill="#1e1e1e" text-anchor="middle" style="white-space: pre;" direction="ltr" dominant-baseline="alphabetic"></text></g><g stroke-linecap="round" transform="translate(70.42885335286468 750.8333333333335) rotate(0 300.00000000000006 23.33333333333331)"><path d="M-0.6 1.06 C142.48 1.99, 284.55 -0.3, 600.74 -0.8 M-0.03 -0.21 C161.48 -1.21, 321.88 -0.72, 599.85 0.14 M602.42 -0.86 C602.6 9.94, 603.36 20.72, 601.43 46.97 M598.4 -1.27 C598.52 13.04, 600.33 26.13, 598.41 47.79 M601.3 45.81 C444.9 42.32, 292.85 42.47, 1.13 45.4 M599.68 46.2 C432.16 43.16, 264.01 43.71, -0.54 45.9 M3.42 49.59 C1.69 28.44, -4.47 20.29, 3.06 0.57 M1.04 45.11 C-0.31 32.74, -0.61 18.44, -0.59 0.84" stroke="#1e1e1e" stroke-width="1" fill="none"></path></g><g transform="translate(82.08731079101545 759.1666666666667) rotate(0 50.008209228515625 17.5)"><text x="50.008209228515625" y="24.528" font-family="Virgil, Segoe UI Emoji" font-size="28px" fill="#1e1e1e" text-anchor="middle" style="white-space: pre;" direction="ltr" dominant-baseline="alphabetic">Estado</text></g><g stroke-linecap="round" transform="translate(65.42885335286445 809.1666666666667) rotate(0 302.49999999999994 23.333333333333314)"><path d="M1.07 -0.83 C222.43 -5.23, 442.87 -5.92, 605.18 -0.05 M-0.56 -0.2 C165.81 4.25, 331.25 4.51, 604.79 0.48 M607.91 0.71 C606.93 13.3, 604.14 25.7, 605.95 43.47 M605.4 1.3 C602.75 12.16, 603.48 20.41, 603.46 48.29 M606.15 46.17 C457.11 43.46, 306.63 44.29, -1.19 46.02 M605.77 47.27 C458.08 46.28, 312.37 47.74, 0.1 47.35 M-3.67 49.9 C2.47 29.83, -0.09 8.78, -0.56 2.08 M-1.32 47.59 C-0.11 37.15, -0.9 27.51, 1.37 0.51" stroke="#1e1e1e" stroke-width="1" fill="none"></path></g><g transform="translate(81.50540161132807 815.8333333333333) rotate(0 30.590118408203125 17.5)"><text x="30.590118408203125" y="24.528" font-family="Virgil, Segoe UI Emoji" font-size="28px" fill="#1e1e1e" text-anchor="middle" style="white-space: pre;" direction="ltr" dominant-baseline="alphabetic">País</text></g><g stroke-linecap="round" transform="translate(225.42885335286445 1015.8333333333333) rotate(0 128.33333333333326 35.83333333333337)"><path d="M17.92 0 C71.69 -1.31, 128.01 1.8, 238.75 0 M17.92 0 C77.29 2.83, 138.74 3.55, 238.75 0 M238.75 0 C247.27 1.94, 255.61 8.39, 256.67 17.92 M238.75 0 C249.71 2.47, 256.58 9.32, 256.67 17.92 M256.67 17.92 C255.56 29, 257.87 37.49, 256.67 53.75 M256.67 17.92 C256.56 27.69, 254.57 35.99, 256.67 53.75 M256.67 53.75 C254.94 62.35, 247.61 74.91, 238.75 71.67 M256.67 53.75 C254.2 62.96, 248.86 74.98, 238.75 71.67 M238.75 71.67 C178.63 67.68, 117.29 67.24, 17.92 71.67 M238.75 71.67 C186.99 73.28, 130.73 70.3, 17.92 71.67 M17.92 71.67 C6.66 75.13, 0.49 69.12, 0 53.75 M17.92 71.67 C9.33 74.54, -3.94 61.48, 0 53.75 M0 53.75 C-0.05 37.03, -1.11 28.54, 0 17.92 M0 53.75 C-0.96 46.72, -0.22 38.68, 0 17.92 M0 17.92 C-2.75 9.11, 8.7 1.01, 17.92 0 M0 17.92 C3.75 5.78, 5.39 -1.07, 17.92 0" stroke="#1e1e1e" stroke-width="1" fill="none"></path></g><g transform="translate(281.2138926188149 1034.1666666666665) rotate(0 72.54829406738281 17.5)"><text x="72.54829406738281" y="24.528" font-family="Virgil, Segoe UI Emoji" font-size="28px" fill="#1e1e1e" text-anchor="middle" style="white-space: pre;" direction="ltr" dominant-baseline="alphabetic">Cadastrar</text></g><g stroke-linecap="round" transform="translate(62.09552001953119 871.6666666666667) rotate(0 302.49999999999994 23.333333333333314)"><path d="M0.03 0.95 C161.32 -0.67, 322.31 -0.03, 603.63 1.5 M0.57 0.46 C184.03 -2.16, 368.74 -2.08, 605.56 -0.7 M608.09 -3.34 C603.4 17.64, 608.42 30.97, 601.9 49.53 M605.6 -0.7 C603.72 8.47, 606.83 19.09, 603.91 47.28 M603.5 48.12 C476.57 50.97, 349.57 48.45, 0.99 46.74 M605.37 47.06 C404.4 44.72, 204.29 44.39, -0.2 47.01 M3.49 46.51 C-3.54 32.16, 1.39 15.03, -0.62 0.76 M1.81 46.07 C-0.09 37.35, 2.15 23.65, -1.02 -0.49" stroke="#1e1e1e" stroke-width="1" fill="none"></path></g><g transform="translate(70.67389170328778 878.3333333333335) rotate(0 70.58829498291016 17.5)"><text x="70.58829498291016" y="24.528" font-family="Virgil, Segoe UI Emoji" font-size="28px" fill="#1e1e1e" text-anchor="middle" style="white-space: pre;" direction="ltr" dominant-baseline="alphabetic">Continente</text></g><g transform="translate(23.498046875000057 1167.5) rotate(0 341.09747314453125 17.5)"><text x="341.09747314453125" y="24.528" font-family="Virgil, Segoe UI Emoji" font-size="28px" fill="#1e1e1e" text-anchor="middle" style="white-space: pre;" direction="ltr" dominant-baseline="alphabetic">Telefones: Contato daquele alguem importante ...</text></g><g stroke-linecap="round" transform="translate(69.5955200195308 1234.1666666666667) rotate(0 299.16666666666663 21.666666666666686)"><path d="M-1.15 0.5 C137.76 -3.19, 276.81 -2.71, 599.61 -0.06 M0.55 0.49 C186.14 3.84, 373.49 4.02, 597.78 -0.09 M600.11 -1.3 C596.52 14.82, 600.52 33.07, 595.85 41.79 M599.99 -1.1 C597.93 14.38, 598.96 33.35, 596.9 42.94 M599.09 44.45 C412.31 46.75, 226.91 46.18, -1.36 43.67 M598.84 43.56 C465.59 38.6, 332.03 38.49, -0.38 43.3 M-1.47 43.89 C4.4 32.8, -1.83 20.17, 2.99 3.93 M1.88 42.5 C0.34 29.73, 1.4 11.57, -1.43 0.11" stroke="#1e1e1e" stroke-width="1" fill="none"></path></g><g transform="translate(78.60466512044252 1240.8333333333337) rotate(0 44.324188232421875 17.5)"><text x="44.324188232421875" y="24.528" font-family="Virgil, Segoe UI Emoji" font-size="28px" fill="#1e1e1e" text-anchor="middle" style="white-space: pre;" direction="ltr" dominant-baseline="alphabetic">Região</text></g><g stroke-linecap="round" transform="translate(67.92885335286451 1297.5000000000002) rotate(0 300 23.333333333333286)"><path d="M0.62 -0.63 C200.08 3.3, 397.81 3.93, 598.61 1.1 M0.31 -0.13 C215.88 1.77, 433.37 1.56, 600.12 0.35 M602.51 1.54 C597.17 10.94, 602.14 26.23, 600.87 49.97 M600.36 1.96 C598.25 11.03, 599.89 22.72, 601.39 47.61 M600.14 46.19 C376.77 47.3, 155.02 47.81, -1.5 47.68 M599.56 46.3 C402.35 45.13, 205.04 44.45, 0.63 46.37 M-2.6 44.92 C2.14 35.95, 1.41 19.39, 1.03 3.77 M1.84 45.79 C-1.8 34.71, -1.22 23.52, -0.15 1.67" stroke="#1e1e1e" stroke-width="1" fill="none"></path></g><g transform="translate(81.83538818359352 1307.5000000000005) rotate(0 32.7601318359375 17.5)"><text x="32.7601318359375" y="24.528" font-family="Virgil, Segoe UI Emoji" font-size="28px" fill="#1e1e1e" text-anchor="middle" style="white-space: pre;" direction="ltr" dominant-baseline="alphabetic">DDD</text></g><g stroke-linecap="round" transform="translate(66.26218668619754 1359.166666666667) rotate(0 302.4999999999999 23.333333333333314)"><path d="M0.19 0.58 C156.12 1.27, 315.99 -0.74, 604.38 0.62 M0.51 -0.31 C171.51 0.92, 342.51 0.27, 604.81 0.5 M607.49 1.26 C605.29 19.11, 602.22 30.25, 602.38 47.38 M605.21 -0.14 C605.72 19.52, 605.73 36.85, 605.12 46.84 M603.75 47.51 C439.89 48.71, 278.24 48.07, -0.5 45.79 M604.58 45.95 C451.51 46.14, 296.87 47.16, 0.04 46.15 M2.26 48.69 C0.34 38.47, -2.35 24.29, 3.68 3.68 M-0.86 47.65 C0.52 36.37, -0.92 21.16, -0.6 0.52" stroke="#1e1e1e" stroke-width="1" fill="none"></path></g><g transform="translate(76.07065327962232 1367.5) rotate(0 46.85820007324219 17.5)"><text x="46.85820007324219" y="24.528" font-family="Virgil, Segoe UI Emoji" font-size="28px" fill="#1e1e1e" text-anchor="middle" style="white-space: pre;" direction="ltr" dominant-baseline="alphabetic">Número</text></g><g stroke-linecap="round" transform="translate(234.59552001953153 1497.5) rotate(0 128.33333333333326 35)"><path d="M17.5 0 C94.14 -4.59, 165.24 -1.3, 239.17 0 M17.5 0 C81.4 -0.21, 143.35 1.21, 239.17 0 M239.17 0 C249.54 -1.48, 255.72 8.35, 256.67 17.5 M239.17 0 C252.61 -2.86, 254.89 8.69, 256.67 17.5 M256.67 17.5 C254.62 27.74, 254.2 41.41, 256.67 52.5 M256.67 17.5 C256.37 31.29, 257.55 46.31, 256.67 52.5 M256.67 52.5 C259.46 63.57, 251.08 70.36, 239.17 70 M256.67 52.5 C255.31 60.24, 251.81 66.42, 239.17 70 M239.17 70 C161.95 73.21, 81.66 70.52, 17.5 70 M239.17 70 C181.78 68.27, 127.59 69.18, 17.5 70 M17.5 70 C6.39 73.63, 0.18 61.56, 0 52.5 M17.5 70 C3.82 73.43, 4.52 66.76, 0 52.5 M0 52.5 C-1.84 41.78, 3.5 31.64, 0 17.5 M0 52.5 C-0.35 44.51, 0.35 36.22, 0 17.5 M0 17.5 C-3.17 2.69, 4.63 1.04, 17.5 0 M0 17.5 C-0.96 3.1, 8.84 -3.71, 17.5 0" stroke="#1e1e1e" stroke-width="1" fill="none"></path></g><g transform="translate(290.380559285482 1515) rotate(0 72.54829406738281 17.5)"><text x="72.54829406738281" y="24.528" font-family="Virgil, Segoe UI Emoji" font-size="28px" fill="#1e1e1e" text-anchor="middle" style="white-space: pre;" direction="ltr" dominant-baseline="alphabetic">Cadastrar</text></g><g transform="translate(74.3522644042967 1703.3333333333335) rotate(0 305.2432556152344 17.5)"><text x="305.2432556152344" y="24.528" font-family="Virgil, Segoe UI Emoji" font-size="28px" fill="#1e1e1e" text-anchor="middle" style="white-space: pre;" direction="ltr" dominant-baseline="alphabetic">Email: Oportunidade a um email de distância</text></g><g stroke-linecap="round" transform="translate(84.59552001953062 1770) rotate(0 299.1666666666667 22.5)"><path d="M-0.67 0.62 C171.71 5.02, 340.52 5.34, 598.16 -1.07 M0.79 -0.06 C165.7 -2.94, 331.12 -2.9, 597.86 0.6 M596.7 -2.05 C601.46 17.72, 602.69 29.19, 601.1 44.86 M597.54 1.02 C597.68 8.24, 597.49 21.73, 599.99 45.02 M598.03 45.51 C453.95 40.48, 311.37 42.77, -0.3 43.68 M598.49 45.36 C394.87 41.14, 192.23 41.49, -0.54 44.62 M1.21 42.73 C-4.47 27.7, 1.77 14.41, 2.53 0.17 M1.67 44.75 C0.63 26.02, -0.11 8.73, -1.12 -0.74" stroke="#1e1e1e" stroke-width="1" fill="none"></path></g><g transform="translate(96.20192209879514 1778.3333333333337) rotate(0 60.060264587402344 17.5)"><text x="60.060264587402344" y="24.528" font-family="Virgil, Segoe UI Emoji" font-size="28px" fill="#1e1e1e" text-anchor="middle" style="white-space: pre;" direction="ltr" dominant-baseline="alphabetic">Endereço</text></g><g stroke-linecap="round" transform="translate(82.92885335286434 1833.3333333333337) rotate(0 300.00000000000006 23.333333333333258)"><path d="M-0.15 1.11 C203.07 -3.45, 406.13 -1.5, 600.97 1.58 M0.4 0.01 C175.11 0.77, 351.61 0.57, 599.42 -0.33 M603.91 -2.8 C603.39 11.47, 597.54 21.81, 598.23 45.09 M599.48 1.67 C601.5 16.41, 598.66 32.88, 598.51 46.28 M601.38 47.99 C400.53 42.45, 202.29 43.67, -1.16 46.98 M599.76 46.61 C392.61 43.85, 186.77 44.71, 0.73 46.91 M2.3 48.41 C3.45 35.49, 4.72 21.87, -1.12 3.34 M-0.59 45.95 C-1.2 32.51, 1.76 20.6, 0.77 -1.55" stroke="#1e1e1e" stroke-width="1" fill="none"></path></g><g transform="translate(96.01597849527951 1845.0000000000005) rotate(0 50.24620819091797 17.5)"><text x="50.24620819091797" y="24.528" font-family="Virgil, Segoe UI Emoji" font-size="28px" fill="#1e1e1e" text-anchor="middle" style="white-space: pre;" direction="ltr" dominant-baseline="alphabetic">Usuário</text></g><g stroke-linecap="round" transform="translate(86.2621866861976 1893.3333333333337) rotate(0 302.49999999999994 23.333333333333258)"><path d="M-0.38 0.88 C224.3 4.83, 446.54 3.93, 604.94 0.8 M0.44 0.4 C181.85 -3.94, 364.45 -3.07, 605.34 0.78 M601.92 -1.42 C603.88 9.16, 607.69 20.81, 601.41 45.62 M603.82 0.11 C604.29 17.51, 606.41 35.53, 603.79 48.4 M605.63 46.57 C372.43 43, 142.89 41.62, -0.81 46.19 M605.47 47.14 C428.28 44.63, 249.65 43.6, -0.23 47.13 M3.8 44.57 C-1.71 33.98, -1.09 14.93, -2.41 -1.17 M1.83 47.44 C1.3 32.79, -0.71 22.18, -1.15 -0.34" stroke="#1e1e1e" stroke-width="1" fill="none"></path></g><g transform="translate(94.84326171874972 1900.0000000000007) rotate(0 59.75225830078125 17.5)"><text x="59.75225830078125" y="24.528" font-family="Virgil, Segoe UI Emoji" font-size="28px" fill="#1e1e1e" text-anchor="middle" style="white-space: pre;" direction="ltr" dominant-baseline="alphabetic">Provedor</text></g><g stroke-linecap="round" transform="translate(221.26218668619782 2039.9999999999995) rotate(0 128.33333333333326 35)"><path d="M17.5 0 C96 -2.32, 174.88 -2.05, 239.17 0 M17.5 0 C85.3 -2, 149.92 -3.56, 239.17 0 M239.17 0 C248.79 2.68, 258.39 9.74, 256.67 17.5 M239.17 0 C247.62 3.18, 256.51 2.29, 256.67 17.5 M256.67 17.5 C258.4 26.09, 252.77 34.97, 256.67 52.5 M256.67 17.5 C256.07 31.03, 255.76 43.96, 256.67 52.5 M256.67 52.5 C257.94 63.63, 248.41 73.46, 239.17 70 M256.67 52.5 C260.46 63.3, 247.05 71.8, 239.17 70 M239.17 70 C175.56 68.45, 107.1 69.72, 17.5 70 M239.17 70 C175.17 69.22, 110.71 68.72, 17.5 70 M17.5 70 C3.56 66.06, -1.13 66.47, 0 52.5 M17.5 70 C7.83 72.91, 0.19 68.54, 0 52.5 M0 52.5 C-0.3 44.16, -2.21 34, 0 17.5 M0 52.5 C2.23 44.02, 1.17 32.46, 0 17.5 M0 17.5 C-2.46 6.17, 3.53 -0.69, 17.5 0 M0 17.5 C3.16 8.41, 9.08 -0.28, 17.5 0" stroke="#1e1e1e" stroke-width="1" fill="none"></path></g><g transform="translate(277.04722595214827 2057.4999999999995) rotate(0 72.54829406738281 17.5)"><text x="72.54829406738281" y="24.528" font-family="Virgil, Segoe UI Emoji" font-size="28px" fill="#1e1e1e" text-anchor="middle" style="white-space: pre;" direction="ltr" dominant-baseline="alphabetic">Cadastrar</text></g><g stroke-linecap="round" transform="translate(82.0955200195313 1958.3333333333328) rotate(0 302.49999999999994 23.333333333333258)"><path d="M1.44 -1.2 C138.22 2.02, 279.15 1.67, 605.47 1.43 M0.67 0.6 C170.65 -1.47, 340.6 -1.26, 605.47 0.33 M605 -3.35 C601.72 11.12, 608.24 22.7, 606.87 44.6 M603.15 -0.81 C603.96 15, 605.08 31.45, 603.43 47.44 M605.4 46.99 C411.18 51.19, 217.88 49.21, -0.96 45.68 M605.71 46.01 C445.89 45.75, 287.9 45.11, -0.16 46.97 M1.95 43.62 C1.46 36.95, -3.83 21.36, -3.24 -3.77 M-1.77 47.25 C-1.76 38.66, -0.08 26.75, 1.38 -1.39" stroke="#1e1e1e" stroke-width="1" fill="none"></path></g><g transform="translate(93.66182963053376 1961.6666666666663) rotate(0 82.60035705566406 17.5)"><text x="82.60035705566406" y="24.528" font-family="Virgil, Segoe UI Emoji" font-size="28px" fill="#1e1e1e" text-anchor="middle" style="white-space: pre;" direction="ltr" dominant-baseline="alphabetic">Complemento</text></g><g stroke-linecap="round" transform="translate(67.0955200195312 1418.3333333333335) rotate(0 302.49999999999994 23.333333333333314)"><path d="M-0.05 1.55 C212.52 2.86, 428.08 2.9, 605.76 0.04 M-0.54 -0.22 C151.62 5.08, 303.46 3.87, 605.57 -0.33 M607.97 -1.38 C602.43 8.24, 604.02 23.63, 601.4 46.55 M606.74 0.86 C604.05 13.07, 605.51 28, 603.4 48.13 M606.34 45.6 C476.73 45.95, 347.32 44.98, -1.08 45.41 M604.6 46.81 C423.63 47.62, 243.36 46.91, -0.33 47.05 M-0.28 44.99 C-1.86 31.9, 1.23 17.31, 1.53 -1.57 M1.15 45.08 C2.47 35.06, 1.14 20.08, -1.13 -0.93" stroke="#1e1e1e" stroke-width="1" fill="none"></path></g><g transform="translate(78.66182963053376 1428.3333333333333) rotate(0 82.60035705566406 17.5)"><text x="82.60035705566406" y="24.528" font-family="Virgil, Segoe UI Emoji" font-size="28px" fill="#1e1e1e" text-anchor="middle" style="white-space: pre;" direction="ltr" dominant-baseline="alphabetic">Complemento</text></g><g stroke-linecap="round" transform="translate(58.762186686197936 936.6666666666667) rotate(0 302.49999999999994 23.333333333333314)"><path d="M0.36 0.2 C190.31 -1.26, 382.28 -1.71, 604.23 -0.16 M-0.26 0.1 C129.63 3.68, 260.17 3.26, 604.93 -0.26 M603.64 -1.74 C603.78 20.03, 605.56 38.53, 605.62 48.83 M603.7 0.81 C605.81 19.16, 603.65 37.23, 604.77 47.56 M605.91 47.84 C427.56 48.65, 246.93 50.3, -0.48 46.15 M604.76 47.03 C480.73 43.83, 355.7 43.44, 0.04 46.84 M-3.11 43.58 C-3.3 34.55, 1.21 21.65, 0.97 3.73 M0.68 45.9 C0 36.55, 0.45 24.38, 0 -1.95" stroke="#1e1e1e" stroke-width="1" fill="none"></path></g><g transform="translate(71.99516296386713 943.3333333333334) rotate(0 82.60035705566406 17.5)"><text x="82.60035705566406" y="24.528" font-family="Virgil, Segoe UI Emoji" font-size="28px" fill="#1e1e1e" text-anchor="middle" style="white-space: pre;" direction="ltr" dominant-baseline="alphabetic">Complemento</text></g></svg>